HIERARCHY
ROOT newVegas:Hips
{
	OFFSET 0.000000 96.479958 0.000000
	CHANNELS 6 Xposition Yposition Zposition Xrotation Yrotation Zrotation
	JOINT newVegas:Pelvis
	{
		OFFSET 0.000000 0.000000 0.000000
		CHANNELS 3 Xrotation Yrotation Zrotation
		JOINT newVegas:LeftUpLeg
		{
			OFFSET 18.735201 -5.666702 -4.541200
			CHANNELS 3 Xrotation Yrotation Zrotation
			JOINT newVegas:LeftLeg
			{
				OFFSET -0.021200 -31.938179 0.493100
				CHANNELS 3 Xrotation Yrotation Zrotation
				JOINT newVegas:LeftFoot
				{
					OFFSET 0.021200 -31.938179 -4.336299
					CHANNELS 3 Xrotation Yrotation Zrotation
					JOINT newVegas:LeftToeBase
					{
						OFFSET 0.943001 -26.722000 15.023500
						CHANNELS 3 Xrotation Yrotation Zrotation
						End Site
						{
							OFFSET 0.000000 30.670183 0.000000
						}
					}
				}
				JOINT newVegas:Left_PantLeg
				{
					OFFSET 0.663870 -9.044666 -1.108900
					CHANNELS 3 Xrotation Yrotation Zrotation
					End Site
					{
						OFFSET 1.415995 20.635357 0.000000
					}
				}
			}
		}
		JOINT newVegas:RightUpLeg
		{
			OFFSET -18.735201 -5.666702 -4.541200
			CHANNELS 3 Xrotation Yrotation Zrotation
			JOINT newVegas:RightLeg
			{
				OFFSET 0.018946 -31.938133 0.493100
				CHANNELS 3 Xrotation Yrotation Zrotation
				JOINT newVegas:RightFoot
				{
					OFFSET -0.018946 -31.938126 -4.336299
					CHANNELS 3 Xrotation Yrotation Zrotation
					JOINT newVegas:RightToeBase
					{
						OFFSET -0.943001 -26.722004 15.023500
						CHANNELS 3 Xrotation Yrotation Zrotation
						End Site
						{
							OFFSET 0.000000 30.670187 0.000000
						}
					}
				}
				JOINT newVegas:Right_PantLeg
				{
					OFFSET -0.661674 -9.044716 -1.108900
					CHANNELS 3 Xrotation Yrotation Zrotation
					End Site
					{
						OFFSET -1.415958 20.635269 0.000000
					}
				}
			}
		}
	}
	JOINT newVegas:Spine
	{
		OFFSET 0.000000 10.199997 -0.299500
		CHANNELS 3 Xrotation Yrotation Zrotation
		JOINT newVegas:Spine1
		{
			OFFSET 0.000000 11.900002 -1.516600
			CHANNELS 3 Xrotation Yrotation Zrotation
			JOINT newVegas:Spine2
			{
				OFFSET 0.000000 13.600006 -2.842500
				CHANNELS 3 Xrotation Yrotation Zrotation
				JOINT newVegas:Neck
				{
					OFFSET 0.000000 9.624100 -2.890100
					CHANNELS 3 Xrotation Yrotation Zrotation
					JOINT newVegas:Head
					{
						OFFSET 0.000000 14.068802 -1.351900
						CHANNELS 3 Xrotation Yrotation Zrotation
						JOINT newVegas:Hair_Back
						{
							OFFSET 0.000000 3.231903 -17.524799
							CHANNELS 3 Xrotation Yrotation Zrotation
							End Site
							{
								OFFSET 0.000000 19.849884 0.000000
							}
						}
						JOINT newVegas:Hair_Front
						{
							OFFSET 0.000000 31.260406 4.573800
							CHANNELS 3 Xrotation Yrotation Zrotation
							JOINT newVegas:Hair_Front1
							{
								OFFSET 0.000000 2.284103 11.993300
								CHANNELS 3 Xrotation Yrotation Zrotation
								JOINT newVegas:Hair_Front2
								{
									OFFSET 0.000000 2.284103 11.993300
									CHANNELS 3 Xrotation Yrotation Zrotation
									End Site
									{
										OFFSET 0.000000 12.208862 0.000000
									}
								}
							}
						}
						JOINT newVegas:Jowel
						{
							OFFSET 0.000000 -7.458206 6.864100
							CHANNELS 3 Xrotation Yrotation Zrotation
							End Site
							{
								OFFSET 0.000000 19.849884 0.000000
							}
						}
					}
				}
				JOINT newVegas:LeftShoulder
				{
					OFFSET 15.263000 10.923401 -0.547700
					CHANNELS 3 Xrotation Yrotation Zrotation
					JOINT newVegas:LeftArm
					{
						OFFSET 25.438599 -2.830597 -13.032500
						CHANNELS 3 Xrotation Yrotation Zrotation
						JOINT newVegas:LeftForeArm
						{
							OFFSET 29.960503 0.000000 0.000000
							CHANNELS 3 Xrotation Yrotation Zrotation
							JOINT newVegas:LeftHand
							{
								OFFSET 27.849251 0.000000 0.000000
								CHANNELS 3 Xrotation Yrotation Zrotation
								JOINT newVegas:LeftHandThumb1
								{
									OFFSET 4.487587 -3.305161 6.305391
									CHANNELS 3 Xrotation Yrotation Zrotation
									JOINT newVegas:LeftHandThumb2
									{
										OFFSET 5.480453 -3.164139 3.164143
										CHANNELS 3 Xrotation Yrotation Zrotation
										JOINT newVegas:LeftHandThumb3
										{
											OFFSET 5.159721 -2.978973 2.978967
											CHANNELS 3 Xrotation Yrotation Zrotation
											End Site
											{
												OFFSET 2.494507 5.926697 1.738678
											}
										}
									}
								}
								JOINT newVegas:LeftHandIndex1
								{
									OFFSET 18.578728 -0.527832 5.208049
									CHANNELS 3 Xrotation Yrotation Zrotation
									JOINT newVegas:LeftHandIndex2
									{
										OFFSET 3.192009 0.000000 0.000000
										CHANNELS 3 Xrotation Yrotation Zrotation
										JOINT newVegas:LeftHandIndex3
										{
											OFFSET 3.835129 0.000000 0.000000
											CHANNELS 3 Xrotation Yrotation Zrotation
											End Site
											{
												OFFSET -0.034599 3.816971 0.371180
											}
										}
									}
								}
								JOINT newVegas:LeftHandMiddle1
								{
									OFFSET 18.476105 0.000000 0.000000
									CHANNELS 3 Xrotation Yrotation Zrotation
									JOINT newVegas:LeftHandMiddle2
									{
										OFFSET 3.324875 0.000000 0.000000
										CHANNELS 3 Xrotation Yrotation Zrotation
										JOINT newVegas:LeftHandMiddle3
										{
											OFFSET 4.596550 0.000000 0.000000
											CHANNELS 3 Xrotation Yrotation Zrotation
											End Site
											{
												OFFSET 0.057701 4.578827 0.399218
											}
										}
									}
								}
								JOINT newVegas:LeftHandRing1
								{
									OFFSET 17.732719 0.121887 -4.201567
									CHANNELS 3 Xrotation Yrotation Zrotation
									JOINT newVegas:LeftHandRing2
									{
										OFFSET 2.733170 0.000000 0.000000
										CHANNELS 3 Xrotation Yrotation Zrotation
										JOINT newVegas:LeftHandRing3
										{
											OFFSET 3.178268 0.000000 0.000000
											CHANNELS 3 Xrotation Yrotation Zrotation
											End Site
											{
												OFFSET 0.119102 3.170624 0.185394
											}
										}
									}
								}
								JOINT newVegas:LeftHandPinky1
								{
									OFFSET 15.989624 -0.606689 -7.535461
									CHANNELS 3 Xrotation Yrotation Zrotation
									JOINT newVegas:LeftHandPinky2
									{
										OFFSET 2.538986 0.000000 0.000000
										CHANNELS 3 Xrotation Yrotation Zrotation
										JOINT newVegas:LeftHandPinky3
										{
											OFFSET 2.593102 0.000000 0.000000
											CHANNELS 3 Xrotation Yrotation Zrotation
											End Site
											{
												OFFSET -0.150902 2.584198 0.152708
											}
										}
									}
								}
							}
							JOINT newVegas:Left_Sleeve
							{
								OFFSET 0.267448 -0.649796 0.577675
								CHANNELS 3 Xrotation Yrotation Zrotation
								End Site
								{
									OFFSET 0.000000 15.991241 0.000000
								}
							}
							JOINT newVegas:Left_CapeC
							{
								OFFSET 15.715958 -8.608795 -6.935905
								CHANNELS 3 Xrotation Yrotation Zrotation
								JOINT newVegas:Left_CapeC1
								{
									OFFSET 0.000000 -8.688499 0.000000
									CHANNELS 3 Xrotation Yrotation Zrotation
									End Site
									{
										OFFSET 0.000000 8.688499 0.000000
									}
								}
							}
						}
						JOINT newVegas:Left_CapeB
						{
							OFFSET 26.118385 -8.608795 -7.079235
							CHANNELS 3 Xrotation Yrotation Zrotation
							JOINT newVegas:Left_CapeB1
							{
								OFFSET 0.000000 -8.688499 0.000000
								CHANNELS 3 Xrotation Yrotation Zrotation
								End Site
								{
									OFFSET 0.000000 8.688499 0.000000
								}
							}
						}
						JOINT newVegas:Left_CapeA
						{
							OFFSET 5.115639 -8.608795 -10.395809
							CHANNELS 3 Xrotation Yrotation Zrotation
							JOINT newVegas:Left_CapeA1
							{
								OFFSET 0.000000 -8.688499 0.000000
								CHANNELS 3 Xrotation Yrotation Zrotation
								End Site
								{
									OFFSET 0.000000 8.688499 0.000000
								}
							}
						}
					}
				}
				JOINT newVegas:RightShoulder
				{
					OFFSET -15.263000 10.923401 -0.547700
					CHANNELS 3 Xrotation Yrotation Zrotation
					JOINT newVegas:RightArm
					{
						OFFSET -25.438599 -2.830597 -13.032500
						CHANNELS 3 Xrotation Yrotation Zrotation
						JOINT newVegas:RightForeArm
						{
							OFFSET -29.960503 0.000000 0.000000
							CHANNELS 3 Xrotation Yrotation Zrotation
							JOINT newVegas:RightHand
							{
								OFFSET -27.849251 0.000000 0.000000
								CHANNELS 3 Xrotation Yrotation Zrotation
								JOINT newVegas:RightHandThumb1
								{
									OFFSET -4.487587 -3.305161 6.305391
									CHANNELS 3 Xrotation Yrotation Zrotation
									JOINT newVegas:RightHandThumb2
									{
										OFFSET -5.480453 -3.164139 3.164143
										CHANNELS 3 Xrotation Yrotation Zrotation
										JOINT newVegas:RightHandThumb3
										{
											OFFSET -5.159721 -2.978973 2.978967
											CHANNELS 3 Xrotation Yrotation Zrotation
											End Site
											{
												OFFSET -2.494507 5.926697 1.738678
											}
										}
									}
								}
								JOINT newVegas:RightHandIndex1
								{
									OFFSET -18.578728 -0.527832 5.208049
									CHANNELS 3 Xrotation Yrotation Zrotation
									JOINT newVegas:RightHandIndex2
									{
										OFFSET -3.192009 0.000000 0.000000
										CHANNELS 3 Xrotation Yrotation Zrotation
										JOINT newVegas:RightHandIndex3
										{
											OFFSET -3.835129 0.000000 0.000000
											CHANNELS 3 Xrotation Yrotation Zrotation
											End Site
											{
												OFFSET 0.034599 3.816971 0.371180
											}
										}
									}
								}
								JOINT newVegas:RightHandMiddle1
								{
									OFFSET -18.476105 0.000000 0.000000
									CHANNELS 3 Xrotation Yrotation Zrotation
									JOINT newVegas:RightHandMiddle2
									{
										OFFSET -3.324875 0.000000 0.000000
										CHANNELS 3 Xrotation Yrotation Zrotation
										JOINT newVegas:RightHandMiddle3
										{
											OFFSET -4.596550 0.000000 0.000000
											CHANNELS 3 Xrotation Yrotation Zrotation
											End Site
											{
												OFFSET -0.057701 4.578827 0.399218
											}
										}
									}
								}
								JOINT newVegas:RightHandRing1
								{
									OFFSET -17.732719 0.121887 -4.201567
									CHANNELS 3 Xrotation Yrotation Zrotation
									JOINT newVegas:RightHandRing2
									{
										OFFSET -2.733170 0.000000 0.000000
										CHANNELS 3 Xrotation Yrotation Zrotation
										JOINT newVegas:RightHandRing3
										{
											OFFSET -3.178268 0.000000 0.000000
											CHANNELS 3 Xrotation Yrotation Zrotation
											End Site
											{
												OFFSET -0.119102 3.170624 0.185394
											}
										}
									}
								}
								JOINT newVegas:RightHandPinky1
								{
									OFFSET -15.989624 -0.606689 -7.535461
									CHANNELS 3 Xrotation Yrotation Zrotation
									JOINT newVegas:RightHandPinky2
									{
										OFFSET -2.538986 0.000000 0.000000
										CHANNELS 3 Xrotation Yrotation Zrotation
										JOINT newVegas:RightHandPinky3
										{
											OFFSET -2.593102 0.000000 0.000000
											CHANNELS 3 Xrotation Yrotation Zrotation
											End Site
											{
												OFFSET 0.150902 2.584198 0.152708
											}
										}
									}
								}
							}
							JOINT newVegas:Right_CapeC
							{
								OFFSET -15.715958 -8.608795 -6.935905
								CHANNELS 3 Xrotation Yrotation Zrotation
								JOINT newVegas:Right_CapeC1
								{
									OFFSET 0.000000 -8.688499 0.000000
									CHANNELS 3 Xrotation Yrotation Zrotation
									End Site
									{
										OFFSET 0.000000 8.688499 0.000000
									}
								}
							}
							JOINT newVegas:Right_Sleeve
							{
								OFFSET -0.267448 -0.649994 0.577675
								CHANNELS 3 Xrotation Yrotation Zrotation
								End Site
								{
									OFFSET 0.000000 15.991302 0.000000
								}
							}
						}
						JOINT newVegas:Right_CapeA
						{
							OFFSET -5.115540 -8.608795 -10.395824
							CHANNELS 3 Xrotation Yrotation Zrotation
							JOINT newVegas:Right_CapeA1
							{
								OFFSET 0.000000 -8.688499 0.000000
								CHANNELS 3 Xrotation Yrotation Zrotation
								End Site
								{
									OFFSET 0.000000 8.688499 0.000000
								}
							}
						}
						JOINT newVegas:Right_CapeB
						{
							OFFSET -26.118187 -8.608795 -7.079266
							CHANNELS 3 Xrotation Yrotation Zrotation
							JOINT newVegas:Right_CapeB1
							{
								OFFSET 0.000000 -8.688499 0.000000
								CHANNELS 3 Xrotation Yrotation Zrotation
								End Site
								{
									OFFSET 0.000000 8.688499 0.000000
								}
							}
						}
					}
				}
				JOINT newVegas:Left_Collar
				{
					OFFSET 18.625099 8.655502 8.828100
					CHANNELS 3 Xrotation Yrotation Zrotation
					JOINT newVegas:Left_Collar1
					{
						OFFSET 14.783401 10.540405 -1.259500
						CHANNELS 3 Xrotation Yrotation Zrotation
						End Site
						{
							OFFSET 0.000000 18.199875 0.000000
						}
					}
				}
				JOINT newVegas:Collar_Back
				{
					OFFSET 0.000000 15.630707 -20.132601
					CHANNELS 3 Xrotation Yrotation Zrotation
					End Site
					{
						OFFSET 0.000000 22.523010 0.000000
					}
				}
				JOINT newVegas:Left_Peck
				{
					OFFSET 17.239599 -5.132599 25.482599
					CHANNELS 3 Xrotation Yrotation Zrotation
					End Site
					{
						OFFSET 0.000000 22.523010 0.000000
					}
				}
				JOINT newVegas:Right_Peck
				{
					OFFSET -17.239599 -5.132202 25.482599
					CHANNELS 3 Xrotation Yrotation Zrotation
					End Site
					{
						OFFSET 0.000000 22.523010 0.000000
					}
				}
				JOINT newVegas:Right_Collar
				{
					OFFSET -18.625099 8.655792 8.828100
					CHANNELS 3 Xrotation Yrotation Zrotation
					JOINT newVegas:Right_Collar1
					{
						OFFSET -14.783401 10.539993 -1.259500
						CHANNELS 3 Xrotation Yrotation Zrotation
						End Site
						{
							OFFSET 0.000000 18.199631 0.000000
						}
					}
				}
			}
		}
		JOINT newVegas:Belly
		{
			OFFSET 0.000000 -6.540398 9.014299
			CHANNELS 3 Xrotation Yrotation Zrotation
			End Site
			{
				OFFSET 0.000000 11.566666 0.000000
			}
		}
	}
	JOINT newVegas:ElvisFacialAnim_Joint
	{
		OFFSET 1.000000 -95.330101 -8.825800
		CHANNELS 3 Xrotation Yrotation Zrotation
		End Site
		{
			OFFSET 0.000000 35.315800 0.000000
		}
	}
}
MOTION
Frames: 4
Frame Time: 0.016667
-2.681005 80.373825 2.552222 -5.398393 -46.091052 -0.138898 0.000000 -0.000003 0.000000 -36.910902 3.269450 21.343899 62.508423 -8.152316 4.188297 -22.911183 -6.711844 -18.589828 0.000000 -0.000001 -0.000000 0.000000 -0.000002 0.000000 -20.977767 -8.980961 -32.624733 63.053868 -6.514532 -7.419395 -31.032049 -9.960345 27.205328 -0.000000 0.000001 0.000000 0.000000 0.000000 0.000002 9.462105 7.035686 -1.694600 2.187715 0.989899 -0.915631 2.202828 0.982772 -0.894153 2.650024 3.452603 -0.064204 2.650040 3.452597 -0.064204 0.000001 0.000000 0.000001 2.650111 3.452561 -0.064171 2.649946 3.452452 -0.064139 -0.000000 0.000002 -0.000001 0.000001 0.000000 0.000001 1.117176 3.546350 -8.633309 -53.487013 4.935494 -51.502990 0.000485 -106.358046 0.000482 1.988606 -7.706147 -15.869251 -6.141211 -11.690801 -6.761685 9.914097 42.595529 3.409860 0.000003 -0.000002 -0.000003 0.255306 3.378222 -45.814334 5.654097 5.847763 -88.067476 0.000001 0.000000 -0.000001 -0.461475 3.841585 -39.722679 6.450744 5.820338 -95.892864 0.000000 0.000001 0.000001 0.469723 4.966808 -39.799441 8.181037 5.368602 -113.502998 0.000001 0.000001 0.000002 -3.762431 9.063713 -45.253818 5.342515 5.828974 -85.005311 0.000002 0.000002 -0.000001 0.000001 0.000001 0.000000 0.000001 0.000001 0.000000 0.000001 0.000001 0.000001 0.000001 -0.000003 -0.000000 0.000001 -0.000003 -0.000000 0.000001 -0.000003 -0.000000 0.000001 -0.000004 -0.000000 3.036126 13.027195 -5.371407 -48.713732 27.172844 83.457091 -0.000003 105.988273 -0.000004 -8.345358 17.548091 8.775655 -7.341098 13.749659 7.412333 9.855733 -44.489096 -3.903275 0.000000 -0.000005 -0.000003 -0.124371 -2.384790 45.108864 4.500582 -4.654545 88.071137 0.000002 -0.000002 0.000000 -0.761620 -2.932901 39.031055 5.133874 -4.632745 95.881629 -0.000001 0.000001 -0.000000 0.154764 -4.068803 39.122661 6.509738 -4.273582 113.462884 0.000001 0.000001 -0.000000 -4.198871 -8.025531 44.637769 4.252904 -4.639611 85.014818 -0.000000 -0.000004 -0.000001 0.000000 0.000001 0.000000 -0.000000 0.000001 -0.000001 0.000000 0.000001 -0.000000 0.000000 0.000002 -0.000001 0.000000 0.000003 -0.000000 0.000000 0.000002 -0.000001 0.000000 0.000002 -0.000001 -0.000000 -0.000002 0.000000 -0.000000 -0.000002 0.000000 -0.000000 -0.000002 0.000000 -0.000000 -0.000002 0.000000 -0.000000 -0.000002 0.000000 -0.000000 -0.000002 0.000000 -0.000000 -0.000002 0.000000 -0.000000 0.000000 -0.000000 0.000000 -0.000003 0.000000 
-2.789717 80.240463 3.091487 -5.369101 -45.910554 0.073312 0.000000 0.000001 0.000000 -36.842785 3.458196 21.164617 63.094917 -7.953012 3.977845 -23.612304 -7.162351 -18.313684 -0.000000 0.000000 -0.000000 0.000001 -0.000001 -0.000001 -21.058740 -9.107916 -33.008815 63.644174 -7.137508 -7.533449 -31.483115 -9.612339 26.630057 -0.000000 0.000001 0.000000 0.000001 0.000002 0.000000 9.618271 7.074431 -1.871049 2.382866 1.109461 -1.073439 2.401566 1.100690 -1.045854 2.593912 3.423833 -0.061262 2.593916 3.423819 -0.061262 0.000000 -0.000003 0.000001 2.593912 3.423811 -0.061260 2.593910 3.423834 -0.061268 0.000000 0.000000 0.000000 0.000000 -0.000003 0.000001 1.183350 3.599423 -8.974600 -53.425490 4.522205 -51.883753 -0.000411 -105.213853 -0.000391 2.694941 -6.785461 -16.625739 -6.141211 -11.690805 -6.761684 9.914096 42.595525 3.409856 -0.000001 0.000002 0.000001 0.255308 3.378219 -45.814334 5.654098 5.847757 -88.067476 0.000000 -0.000000 0.000001 -0.461476 3.841587 -39.722676 6.450744 5.820335 -95.892864 -0.000001 0.000001 0.000001 0.469725 4.966807 -39.799444 8.181032 5.368603 -113.503004 -0.000001 0.000001 0.000003 -3.762425 9.063713 -45.253821 5.342507 5.828977 -85.005311 -0.000001 0.000000 0.000001 0.000000 0.000002 -0.000001 0.000000 0.000002 -0.000001 0.000000 0.000002 -0.000000 -0.000001 0.000001 0.000000 -0.000001 0.000000 0.000000 -0.000001 0.000001 0.000000 -0.000001 -0.000001 0.000000 3.025168 12.911345 -5.539061 -48.147940 26.895822 84.263573 0.000341 105.577185 -0.000332 -8.085369 17.722251 8.888122 -7.341095 13.749659 7.412325 9.855735 -44.489093 -3.903280 0.000005 0.000000 -0.000004 -0.124372 -2.384787 45.108868 4.500584 -4.654543 88.071137 -0.000001 0.000001 0.000002 -0.761621 -2.932898 39.031044 5.133872 -4.632749 95.881642 -0.000000 -0.000001 -0.000003 0.154762 -4.068800 39.122661 6.509738 -4.273583 113.462891 0.000000 -0.000001 -0.000001 -4.198874 -8.025526 44.637766 4.252904 -4.639608 85.014818 0.000000 -0.000005 -0.000003 -0.000000 0.000004 0.000000 -0.000000 0.000001 0.000000 -0.000000 0.000004 -0.000001 -0.000000 0.000003 -0.000002 -0.000000 0.000004 -0.000002 -0.000000 0.000003 -0.000002 -0.000000 0.000004 -0.000003 0.000001 -0.000001 0.000000 0.000001 -0.000001 0.000000 0.000001 -0.000001 0.000000 0.000001 -0.000001 0.000000 0.000001 -0.000001 0.000000 0.000001 -0.000001 0.000000 0.000001 -0.000001 0.000000 -0.000001 -0.000000 0.000000 0.000000 0.000001 0.000000 
-2.907475 80.249847 3.609224 -5.136936 -45.565746 0.403287 0.000001 0.000002 0.000000 -36.820430 3.701402 21.000176 63.214364 -7.760722 3.733937 -24.001152 -7.808039 -18.034541 -0.000000 0.000000 -0.000000 -0.000000 0.000000 -0.000001 -21.333275 -8.971360 -33.703671 64.115088 -7.140100 -7.446720 -30.676511 -9.273367 26.607789 0.000000 0.000001 0.000001 -0.000000 0.000002 0.000002 9.731198 7.112335 -2.004289 2.523095 1.222468 -1.220268 2.544997 1.213392 -1.187302 2.568869 3.390345 -0.065108 2.568861 3.390358 -0.065109 0.000001 0.000002 -0.000000 2.568860 3.390354 -0.065110 2.568875 3.390349 -0.065104 -0.000000 0.000001 -0.000000 0.000001 0.000002 0.000000 1.271897 3.450426 -9.352720 -53.737702 4.019018 -51.821048 0.001164 -104.376198 0.001152 3.364586 -5.538225 -17.414110 -6.141216 -11.690802 -6.761684 9.914098 42.595525 3.409860 0.000001 0.000003 -0.000004 0.255305 3.378224 -45.814337 5.654101 5.847757 -88.067476 0.000002 0.000000 0.000001 -0.461477 3.841587 -39.722676 6.450746 5.820335 -95.892871 0.000002 0.000001 0.000000 0.469725 4.966809 -39.799444 8.181032 5.368602 -113.503004 -0.000002 0.000001 0.000000 -3.762431 9.063717 -45.253814 5.342505 5.828981 -85.005304 0.000002 -0.000002 0.000001 -0.000001 -0.000002 0.000001 -0.000001 -0.000002 0.000001 -0.000001 -0.000001 0.000002 0.000001 -0.000002 -0.000001 0.000001 -0.000003 -0.000002 0.000001 -0.000002 -0.000001 0.000001 -0.000003 -0.000001 3.009250 12.882599 -5.845509 -47.901773 26.454223 85.051633 0.000509 105.041787 -0.000532 -8.061764 17.824026 9.078424 -7.341099 13.749654 7.412332 9.855737 -44.489096 -3.903273 0.000001 -0.000002 0.000003 -0.124372 -2.384792 45.108868 4.500586 -4.654547 88.071137 0.000000 0.000000 0.000000 -0.761621 -2.932900 39.031048 5.133871 -4.632749 95.881642 0.000001 -0.000001 0.000000 0.154762 -4.068803 39.122661 6.509735 -4.273583 113.462891 -0.000000 -0.000003 -0.000001 -4.198876 -8.025535 44.637772 4.252902 -4.639611 85.014825 -0.000001 -0.000000 0.000001 0.000001 0.000000 0.000002 0.000001 0.000000 0.000001 0.000001 0.000000 0.000001 0.000000 -0.000001 0.000000 0.000000 0.000000 0.000002 0.000000 -0.000001 0.000000 0.000000 -0.000000 0.000001 0.000001 0.000001 -0.000001 0.000001 0.000001 -0.000001 0.000001 0.000001 -0.000001 0.000001 0.000001 -0.000001 0.000001 0.000001 -0.000001 0.000001 0.000001 -0.000001 0.000001 0.000001 -0.000001 0.000000 0.000000 0.000000 0.000001 0.000002 0.000000 
-3.037058 80.401802 4.090966 -4.692568 -45.084149 0.825113 0.000000 0.000002 0.000001 -36.849537 3.964576 20.861225 62.885149 -7.585885 3.486271 -24.088137 -8.575563 -17.773348 -0.000000 -0.000001 0.000000 0.000001 -0.000002 0.000000 -21.973236 -8.755773 -34.326441 64.653765 -7.148928 -7.288948 -29.246108 -8.693461 26.304151 0.000000 0.000001 0.000001 0.000001 0.000000 -0.000002 9.788702 7.149669 -2.082966 2.594242 1.326393 -1.342160 2.618629 1.318491 -1.304864 2.578972 3.356839 -0.077610 2.578969 3.356851 -0.077611 -0.000000 0.000001 0.000000 2.578973 3.356852 -0.077611 2.579043 3.356841 -0.077614 -0.000001 0.000002 0.000000 -0.000000 0.000001 -0.000000 1.361011 3.142965 -9.684678 -54.368514 3.505233 -51.369921 0.000887 -103.901808 0.000874 3.892648 -4.154478 -18.243930 -6.141210 -11.690805 -6.761683 9.914098 42.595525 3.409863 0.000001 -0.000000 -0.000003 0.255307 3.378218 -45.814337 5.654101 5.847758 -88.067476 -0.000001 -0.000001 -0.000000 -0.461477 3.841583 -39.722676 6.450745 5.820336 -95.892864 -0.000000 -0.000000 -0.000000 0.469726 4.966803 -39.799444 8.181032 5.368603 -113.502998 -0.000002 -0.000001 -0.000001 -3.762431 9.063715 -45.253818 5.342515 5.828976 -85.005311 0.000001 -0.000002 -0.000001 -0.000000 -0.000003 0.000001 -0.000000 -0.000003 0.000001 -0.000000 -0.000003 0.000001 0.000000 -0.000003 0.000000 0.000000 -0.000003 0.000000 0.000000 -0.000003 0.000000 -0.000000 -0.000004 -0.000000 2.995730 13.013992 -6.195493 -48.018149 25.955446 85.662006 0.001042 104.429651 -0.001001 -8.242455 17.789060 9.105820 -7.341095 13.749657 7.412326 9.855729 -44.489093 -3.903283 -0.000000 -0.000001 0.000001 -0.124372 -2.384791 45.108861 4.500587 -4.654545 88.071137 0.000002 0.000001 -0.000001 -0.761621 -2.932901 39.031048 5.133873 -4.632747 95.881642 0.000001 -0.000001 -0.000002 0.154763 -4.068804 39.122664 6.509740 -4.273581 113.462891 -0.000000 0.000004 0.000000 -4.198869 -8.025533 44.637762 4.252905 -4.639609 85.014825 -0.000002 0.000002 -0.000002 0.000001 0.000004 0.000001 0.000000 -0.000000 -0.000001 0.000001 0.000004 -0.000000 0.000001 0.000003 -0.000002 0.000001 0.000004 -0.000001 0.000001 0.000003 -0.000002 0.000001 0.000004 -0.000001 0.000000 0.000000 -0.000000 0.000000 0.000000 -0.000000 0.000000 0.000000 -0.000000 0.000000 0.000000 -0.000000 0.000000 0.000000 -0.000000 0.000000 0.000000 -0.000000 0.000000 0.000000 -0.000000 0.000000 0.000004 -0.000000 0.000000 0.000002 0.000001 
